<?xml version="1.0" encoding="UTF-8" standalone="no"?>
<!DOCTYPE svg PUBLIC "-//W3C//DTD SVG 1.1//EN"
 "http://www.w3.org/Graphics/SVG/1.1/DTD/svg11.dtd">
<!-- Generated by graphviz version 2.34.0 (20130907.0228)
 -->
<!-- Title: G Pages: 1 -->
<svg width="517pt" height="35pt"
 viewBox="14.40 0.00 502.40 35.31" xmlns="http://www.w3.org/2000/svg" xmlns:xlink="http://www.w3.org/1999/xlink">
<g id="graph0" class="graph" transform="scale(1 1) rotate(0) translate(18.4 31.3142)">
<title>G</title>
<polygon fill="white" stroke="white" points="-4,4 -4,-31.3142 484,-31.3142 484,4 -4,4"/>
<!-- 1 -->
<g id="node1" class="node"><title>1</title>
<ellipse fill="black" stroke="black" cx="4" cy="-13.6571" rx="3.6" ry="3.6"/>
</g>
<!-- 2 -->
<g id="node2" class="node"><title>2</title>
<ellipse fill="black" stroke="black" cx="48" cy="-13.6571" rx="3.6" ry="3.6"/>
</g>
<!-- 1&#45;&gt;2 -->
<g id="edge1" class="edge"><title>1&#45;&gt;2</title>
<path fill="none" stroke="black" d="M7.75574,-13.6571C13.0345,-13.6571 24.874,-13.6571 34.1767,-13.6571"/>
<polygon fill="black" stroke="black" points="34.1791,-17.1572 44.179,-13.6571 34.179,-10.1572 34.1791,-17.1572"/>
</g>
<!-- 3 -->
<g id="node3" class="node"><title>3</title>
<ellipse fill="black" stroke="black" cx="92" cy="-13.6571" rx="3.6" ry="3.6"/>
</g>
<!-- 2&#45;&gt;3 -->
<g id="edge2" class="edge"><title>2&#45;&gt;3</title>
<path fill="none" stroke="black" d="M50.8047,-10.704C55.7162,-7.09548 69.6301,-6.05909 79.7128,-7.59478"/>
<polygon fill="black" stroke="black" points="78.6556,-10.9315 89.2488,-10.7436 80.8506,-4.28451 78.6556,-10.9315"/>
</g>
<!-- 2&#45;&gt;3 -->
<g id="edge3" class="edge"><title>2&#45;&gt;3</title>
<path fill="none" stroke="black" d="M50.8047,-16.6102C55.7162,-20.2187 69.6301,-21.2551 79.7128,-19.7194"/>
<polygon fill="black" stroke="black" points="80.8506,-23.0297 89.2488,-16.5706 78.6556,-16.3827 80.8506,-23.0297"/>
</g>
<!-- 4 -->
<g id="node4" class="node"><title>4</title>
<ellipse fill="black" stroke="black" cx="136" cy="-13.6571" rx="3.6" ry="3.6"/>
</g>
<!-- 3&#45;&gt;4 -->
<g id="edge4" class="edge"><title>3&#45;&gt;4</title>
<path fill="none" stroke="black" d="M95.7557,-13.6571C101.034,-13.6571 112.874,-13.6571 122.177,-13.6571"/>
<polygon fill="black" stroke="black" points="122.179,-17.1572 132.179,-13.6571 122.179,-10.1572 122.179,-17.1572"/>
</g>
<!-- 5 -->
<g id="node5" class="node"><title>5</title>
<ellipse fill="black" stroke="black" cx="180" cy="-13.6571" rx="3.6" ry="3.6"/>
</g>
<!-- 4&#45;&gt;5 -->
<g id="edge5" class="edge"><title>4&#45;&gt;5</title>
<path fill="none" stroke="black" d="M138.805,-10.704C143.716,-7.09548 157.63,-6.05909 167.713,-7.59478"/>
<polygon fill="black" stroke="black" points="166.656,-10.9315 177.249,-10.7436 168.851,-4.28451 166.656,-10.9315"/>
</g>
<!-- 4&#45;&gt;5 -->
<g id="edge6" class="edge"><title>4&#45;&gt;5</title>
<path fill="none" stroke="black" d="M138.805,-16.6102C143.716,-20.2187 157.63,-21.2551 167.713,-19.7194"/>
<polygon fill="black" stroke="black" points="168.851,-23.0297 177.249,-16.5706 166.656,-16.3827 168.851,-23.0297"/>
</g>
<!-- 6 -->
<g id="node6" class="node"><title>6</title>
<ellipse fill="black" stroke="black" cx="262" cy="-13.6571" rx="3.6" ry="3.6"/>
</g>
<!-- 5&#45;&gt;6 -->
<g id="edge7" class="edge"><title>5&#45;&gt;6</title>
<path fill="none" stroke="black" d="M183.662,-13.6571C193.578,-13.6571 228.793,-13.6571 248.101,-13.6571"/>
<polygon fill="black" stroke="black" points="248.246,-17.1572 258.246,-13.6571 248.246,-10.1572 248.246,-17.1572"/>
</g>
<!-- 7 -->
<g id="node7" class="node"><title>7</title>
<ellipse fill="black" stroke="black" cx="306" cy="-13.6571" rx="3.6" ry="3.6"/>
</g>
<!-- 6&#45;&gt;7 -->
<g id="edge8" class="edge"><title>6&#45;&gt;7</title>
<path fill="none" stroke="black" d="M263.594,-10.1272C267.227,0.109158 286.667,2.46322 297.57,-3.06502"/>
<polygon fill="black" stroke="black" points="295.065,-5.50965 304.485,-10.3579 300.144,-0.693181 295.065,-5.50965"/>
</g>
<!-- 6&#45;&gt;7 -->
<g id="edge9" class="edge"><title>6&#45;&gt;7</title>
<path fill="none" stroke="black" d="M265.756,-13.6571C271.034,-13.6571 282.874,-13.6571 292.177,-13.6571"/>
<polygon fill="black" stroke="black" points="292.179,-17.1572 302.179,-13.6571 292.179,-10.1572 292.179,-17.1572"/>
</g>
<!-- 6&#45;&gt;7 -->
<g id="edge10" class="edge"><title>6&#45;&gt;7</title>
<path fill="none" stroke="black" d="M263.594,-17.187C267.227,-27.4234 286.667,-29.7774 297.57,-24.2492"/>
<polygon fill="black" stroke="black" points="300.144,-26.621 304.485,-16.9563 295.065,-21.8046 300.144,-26.621"/>
</g>
<!-- 8 -->
<g id="node8" class="node"><title>8</title>
<ellipse fill="black" stroke="black" cx="388" cy="-13.6571" rx="3.6" ry="3.6"/>
</g>
<!-- 7&#45;&gt;8 -->
<g id="edge11" class="edge"><title>7&#45;&gt;8</title>
<path fill="none" stroke="black" d="M309.662,-13.6571C319.578,-13.6571 354.793,-13.6571 374.101,-13.6571"/>
<polygon fill="black" stroke="black" points="374.246,-17.1572 384.246,-13.6571 374.246,-10.1572 374.246,-17.1572"/>
</g>
<!-- 9 -->
<g id="node9" class="node"><title>9</title>
<ellipse fill="black" stroke="black" cx="432" cy="-13.6571" rx="3.6" ry="3.6"/>
</g>
<!-- 8&#45;&gt;9 -->
<g id="edge12" class="edge"><title>8&#45;&gt;9</title>
<path fill="none" stroke="black" d="M390.805,-10.704C395.716,-7.09548 409.63,-6.05909 419.713,-7.59478"/>
<polygon fill="black" stroke="black" points="418.656,-10.9315 429.249,-10.7436 420.851,-4.28451 418.656,-10.9315"/>
</g>
<!-- 8&#45;&gt;9 -->
<g id="edge13" class="edge"><title>8&#45;&gt;9</title>
<path fill="none" stroke="black" d="M390.805,-16.6102C395.716,-20.2187 409.63,-21.2551 419.713,-19.7194"/>
<polygon fill="black" stroke="black" points="420.851,-23.0297 429.249,-16.5706 418.656,-16.3827 420.851,-23.0297"/>
</g>
<!-- 10 -->
<g id="node10" class="node"><title>10</title>
<ellipse fill="black" stroke="black" cx="476" cy="-13.6571" rx="3.6" ry="3.6"/>
</g>
<!-- 9&#45;&gt;10 -->
<g id="edge14" class="edge"><title>9&#45;&gt;10</title>
<path fill="none" stroke="black" d="M435.756,-13.6571C441.034,-13.6571 452.874,-13.6571 462.177,-13.6571"/>
<polygon fill="black" stroke="black" points="462.179,-17.1572 472.179,-13.6571 462.179,-10.1572 462.179,-17.1572"/>
</g>
</g>
</svg>
