<?xml version="1.0" encoding="UTF-8" standalone="no"?>
<!DOCTYPE svg PUBLIC "-//W3C//DTD SVG 1.1//EN"
 "http://www.w3.org/Graphics/SVG/1.1/DTD/svg11.dtd">
<!-- Generated by graphviz version 2.28.0 (20130712.2238)
 -->
<!-- Title: G Pages: 1 -->
<svg width="3440pt" height="291pt"
 viewBox="72.00 72.00 3440.00 291.00" xmlns="http://www.w3.org/2000/svg" xmlns:xlink="http://www.w3.org/1999/xlink">
<g id="viewport" transform="translate(0,-400)">
<g id="graph1" class="graph" transform="scale(1 1) rotate(0) translate(76 215)">
<title>G</title>
<polygon fill="white" stroke="white" points="-4,5 -4,-143 3293,-143 3293,5 -4,5"/>
<text text-anchor="middle" x="15.5" y="-123.8" font-family="Times,serif" font-size="14.00">F1</text>
<g id="graph2" class="cluster"><title>cluster_0</title>
<polygon fill="none" stroke="white" points="8,-8 8,-108 3280,-108 3280,-8 8,-8"/>
</g>
<!-- 1251 -->
<g id="node2" class="node"><title>1251</title>
<ellipse fill="black" stroke="black" cx="2822" cy="-59" rx="3.6" ry="3.6"/>
</g>
<!-- 1245 -->
<g id="node4" class="node"><title>1245</title>
<ellipse fill="black" stroke="black" cx="3042" cy="-59" rx="3.6" ry="3.6"/>
</g>
<!-- 1251&#45;&gt;1245 -->
<g id="edge3" class="edge"><title>1251&#45;&gt;1245</title>
<path fill="none" stroke="red" d="M2825.98,-59C2832.75,-59 2849.76,-59 2864,-59 2864,-59 2864,-59 3000,-59 3009.34,-59 3019.88,-59 3027.94,-59"/>
<polygon fill="red" stroke="red" points="3028.02,-62.5001 3038.02,-59 3028.02,-55.5001 3028.02,-62.5001"/>
<text text-anchor="middle" x="2932" y="-62.8" font-family="Times,serif" font-size="14.00">1287 2.3k</text>
</g>
<!-- 1225 -->
<g id="node48" class="node"><title>1225</title>
<ellipse fill="green" stroke="green" cx="3268" cy="-34" rx="3.6" ry="3.6"/>
</g>
<!-- 1245&#45;&gt;1225 -->
<g id="edge57" class="edge"><title>1245&#45;&gt;1225</title>
<path fill="none" stroke="red" stroke-dasharray="1,5" d="M3044.95,-56.6929C3050.43,-50.5039 3066.66,-34 3084,-34 3084,-34 3084,-34 3226,-34 3235.34,-34 3245.88,-34 3253.94,-34"/>
<polygon fill="red" stroke="red" points="3254.02,-37.5001 3264.02,-34 3254.02,-30.5001 3254.02,-37.5001"/>
<text text-anchor="middle" x="3155" y="-37.8" font-family="Times,serif" font-size="14.00">30201 1.0k</text>
</g>
<!-- 1226 -->
<g id="node50" class="node"><title>1226</title>
<ellipse fill="green" stroke="green" cx="3268" cy="-85" rx="3.6" ry="3.6"/>
</g>
<!-- 1245&#45;&gt;1226 -->
<g id="edge59" class="edge"><title>1245&#45;&gt;1226</title>
<path fill="none" stroke="red" stroke-dasharray="1,5" d="M3044.93,-61.3994C3050.36,-67.8359 3066.47,-85 3084,-85 3084,-85 3084,-85 3226,-85 3235.34,-85 3245.88,-85 3253.94,-85"/>
<polygon fill="red" stroke="red" points="3254.02,-88.5001 3264.02,-85 3254.02,-81.5001 3254.02,-88.5001"/>
<text text-anchor="middle" x="3155" y="-88.8" font-family="Times,serif" font-size="14.00">31545 1.0k</text>
</g>
<!-- 1256 -->
<g id="node5" class="node"><title>1256</title>
<ellipse fill="black" stroke="black" cx="2710" cy="-59" rx="3.6" ry="3.6"/>
</g>
<!-- 1256&#45;&gt;1251 -->
<g id="edge5" class="edge"><title>1256&#45;&gt;1251</title>
<path fill="none" stroke="black" stroke-dasharray="1,5" d="M2713.54,-58.066C2719.91,-55.7833 2737.09,-49.9648 2752,-48 2764.34,-46.3737 2767.66,-46.3737 2780,-48 2789.9,-49.3047 2800.8,-52.3089 2808.87,-54.8485"/>
<polygon fill="black" stroke="black" points="2807.86,-58.2009 2818.46,-58.066 2810.09,-51.5649 2807.86,-58.2009"/>
<text text-anchor="middle" x="2766" y="-51.8" font-family="Times,serif" font-size="14.00">1293</text>
</g>
<!-- 1256&#45;&gt;1251 -->
<g id="edge7" class="edge"><title>1256&#45;&gt;1251</title>
<path fill="none" stroke="black" d="M2713.58,-59.3403C2720.04,-60.1719 2737.43,-62.2908 2752,-63 2764.43,-63.6049 2767.57,-63.6049 2780,-63 2789.56,-62.5346 2800.34,-61.4621 2808.44,-60.5447"/>
<polygon fill="black" stroke="black" points="2808.91,-64.0137 2818.42,-59.3403 2808.07,-57.0641 2808.91,-64.0137"/>
<text text-anchor="middle" x="2766" y="-66.8" font-family="Times,serif" font-size="14.00">1294</text>
</g>
<!-- 1262 -->
<g id="node8" class="node"><title>1262</title>
<ellipse fill="black" stroke="black" cx="2598" cy="-59" rx="3.6" ry="3.6"/>
</g>
<!-- 1262&#45;&gt;1256 -->
<g id="edge9" class="edge"><title>1262&#45;&gt;1256</title>
<path fill="none" stroke="black" d="M2601.72,-59C2614.68,-59 2670.6,-59 2696.17,-59"/>
<polygon fill="black" stroke="black" points="2696.38,-62.5001 2706.38,-59 2696.38,-55.5001 2696.38,-62.5001"/>
<text text-anchor="middle" x="2654" y="-62.8" font-family="Times,serif" font-size="14.00">1300</text>
</g>
<!-- 1266 -->
<g id="node10" class="node"><title>1266</title>
<ellipse fill="black" stroke="black" cx="2486" cy="-59" rx="3.6" ry="3.6"/>
</g>
<!-- 1266&#45;&gt;1262 -->
<g id="edge11" class="edge"><title>1266&#45;&gt;1262</title>
<path fill="none" stroke="black" stroke-dasharray="1,5" d="M2489.54,-58.066C2495.91,-55.7833 2513.09,-49.9648 2528,-48 2540.34,-46.3737 2543.66,-46.3737 2556,-48 2565.9,-49.3047 2576.8,-52.3089 2584.87,-54.8485"/>
<polygon fill="black" stroke="black" points="2583.86,-58.2009 2594.46,-58.066 2586.09,-51.5649 2583.86,-58.2009"/>
<text text-anchor="middle" x="2542" y="-51.8" font-family="Times,serif" font-size="14.00">1305</text>
</g>
<!-- 1266&#45;&gt;1262 -->
<g id="edge13" class="edge"><title>1266&#45;&gt;1262</title>
<path fill="none" stroke="black" d="M2489.58,-59.3403C2496.04,-60.1719 2513.43,-62.2908 2528,-63 2540.43,-63.6049 2543.57,-63.6049 2556,-63 2565.56,-62.5346 2576.34,-61.4621 2584.44,-60.5447"/>
<polygon fill="black" stroke="black" points="2584.91,-64.0137 2594.42,-59.3403 2584.07,-57.0641 2584.91,-64.0137"/>
<text text-anchor="middle" x="2542" y="-66.8" font-family="Times,serif" font-size="14.00">1306</text>
</g>
<!-- 1271 -->
<g id="node13" class="node"><title>1271</title>
<ellipse fill="black" stroke="black" cx="2374" cy="-59" rx="3.6" ry="3.6"/>
</g>
<!-- 1271&#45;&gt;1266 -->
<g id="edge15" class="edge"><title>1271&#45;&gt;1266</title>
<path fill="none" stroke="black" d="M2377.72,-59C2390.68,-59 2446.6,-59 2472.17,-59"/>
<polygon fill="black" stroke="black" points="2472.38,-62.5001 2482.38,-59 2472.38,-55.5001 2472.38,-62.5001"/>
<text text-anchor="middle" x="2430" y="-62.8" font-family="Times,serif" font-size="14.00">1309</text>
</g>
<!-- 1298 -->
<g id="node15" class="node"><title>1298</title>
<ellipse fill="black" stroke="black" cx="2256" cy="-59" rx="3.6" ry="3.6"/>
</g>
<!-- 1298&#45;&gt;1271 -->
<g id="edge17" class="edge"><title>1298&#45;&gt;1271</title>
<path fill="none" stroke="black" d="M2259.54,-58.066C2265.91,-55.7833 2283.09,-49.9648 2298,-48 2312.98,-46.0252 2317.02,-46.0252 2332,-48 2341.9,-49.3047 2352.8,-52.3089 2360.87,-54.8485"/>
<polygon fill="black" stroke="black" points="2359.86,-58.2009 2370.46,-58.066 2362.09,-51.5649 2359.86,-58.2009"/>
<text text-anchor="middle" x="2315" y="-51.8" font-family="Times,serif" font-size="14.00">30214</text>
</g>
<!-- 1298&#45;&gt;1271 -->
<g id="edge19" class="edge"><title>1298&#45;&gt;1271</title>
<path fill="none" stroke="black" d="M2259.58,-59.3403C2266.04,-60.1719 2283.43,-62.2908 2298,-63 2313.09,-63.7345 2316.91,-63.7345 2332,-63 2341.56,-62.5346 2352.34,-61.4621 2360.44,-60.5447"/>
<polygon fill="black" stroke="black" points="2360.91,-64.0137 2370.42,-59.3403 2360.07,-57.0641 2360.91,-64.0137"/>
<text text-anchor="middle" x="2315" y="-66.8" font-family="Times,serif" font-size="14.00">31546</text>
</g>
<!-- 1316 -->
<g id="node18" class="node"><title>1316</title>
<ellipse fill="black" stroke="black" cx="2030" cy="-59" rx="3.6" ry="3.6"/>
</g>
<!-- 1316&#45;&gt;1298 -->
<g id="edge21" class="edge"><title>1316&#45;&gt;1298</title>
<path fill="none" stroke="red" d="M2033.98,-59C2040.75,-59 2057.76,-59 2072,-59 2072,-59 2072,-59 2214,-59 2223.34,-59 2233.88,-59 2241.94,-59"/>
<polygon fill="red" stroke="red" points="2242.02,-62.5001 2252.02,-59 2242.02,-55.5001 2242.02,-62.5001"/>
<text text-anchor="middle" x="2143" y="-62.8" font-family="Times,serif" font-size="14.00">28113 7.5k</text>
</g>
<!-- 1321 -->
<g id="node20" class="node"><title>1321</title>
<ellipse fill="black" stroke="black" cx="1918" cy="-59" rx="3.6" ry="3.6"/>
</g>
<!-- 1321&#45;&gt;1316 -->
<g id="edge23" class="edge"><title>1321&#45;&gt;1316</title>
<path fill="none" stroke="black" d="M1921.54,-58.066C1927.91,-55.7833 1945.09,-49.9648 1960,-48 1972.34,-46.3737 1975.66,-46.3737 1988,-48 1997.9,-49.3047 2008.8,-52.3089 2016.87,-54.8485"/>
<polygon fill="black" stroke="black" points="2015.86,-58.2009 2026.46,-58.066 2018.09,-51.5649 2015.86,-58.2009"/>
<text text-anchor="middle" x="1974" y="-51.8" font-family="Times,serif" font-size="14.00">1358</text>
</g>
<!-- 1321&#45;&gt;1316 -->
<g id="edge25" class="edge"><title>1321&#45;&gt;1316</title>
<path fill="none" stroke="black" stroke-dasharray="1,5" d="M1921.58,-59.3403C1928.04,-60.1719 1945.43,-62.2908 1960,-63 1972.43,-63.6049 1975.57,-63.6049 1988,-63 1997.56,-62.5346 2008.34,-61.4621 2016.44,-60.5447"/>
<polygon fill="black" stroke="black" points="2016.91,-64.0137 2026.42,-59.3403 2016.07,-57.0641 2016.91,-64.0137"/>
<text text-anchor="middle" x="1974" y="-66.8" font-family="Times,serif" font-size="14.00">1359</text>
</g>
<!-- 1326 -->
<g id="node23" class="node"><title>1326</title>
<ellipse fill="black" stroke="black" cx="1806" cy="-59" rx="3.6" ry="3.6"/>
</g>
<!-- 1326&#45;&gt;1321 -->
<g id="edge27" class="edge"><title>1326&#45;&gt;1321</title>
<path fill="none" stroke="black" d="M1809.72,-59C1822.68,-59 1878.6,-59 1904.17,-59"/>
<polygon fill="black" stroke="black" points="1904.38,-62.5001 1914.38,-59 1904.38,-55.5001 1904.38,-62.5001"/>
<text text-anchor="middle" x="1862" y="-62.8" font-family="Times,serif" font-size="14.00">1363</text>
</g>
<!-- 1330 -->
<g id="node25" class="node"><title>1330</title>
<ellipse fill="black" stroke="black" cx="1694" cy="-59" rx="3.6" ry="3.6"/>
</g>
<!-- 1330&#45;&gt;1326 -->
<g id="edge29" class="edge"><title>1330&#45;&gt;1326</title>
<path fill="none" stroke="black" stroke-dasharray="1,5" d="M1697.54,-58.066C1703.91,-55.7833 1721.09,-49.9648 1736,-48 1748.34,-46.3737 1751.66,-46.3737 1764,-48 1773.9,-49.3047 1784.8,-52.3089 1792.87,-54.8485"/>
<polygon fill="black" stroke="black" points="1791.86,-58.2009 1802.46,-58.066 1794.09,-51.5649 1791.86,-58.2009"/>
<text text-anchor="middle" x="1750" y="-51.8" font-family="Times,serif" font-size="14.00">1368</text>
</g>
<!-- 1330&#45;&gt;1326 -->
<g id="edge31" class="edge"><title>1330&#45;&gt;1326</title>
<path fill="none" stroke="black" d="M1697.58,-59.3403C1704.04,-60.1719 1721.43,-62.2908 1736,-63 1748.43,-63.6049 1751.57,-63.6049 1764,-63 1773.56,-62.5346 1784.34,-61.4621 1792.44,-60.5447"/>
<polygon fill="black" stroke="black" points="1792.91,-64.0137 1802.42,-59.3403 1792.07,-57.0641 1792.91,-64.0137"/>
<text text-anchor="middle" x="1750" y="-66.8" font-family="Times,serif" font-size="14.00">1369</text>
</g>
<!-- 1335 -->
<g id="node28" class="node"><title>1335</title>
<ellipse fill="black" stroke="black" cx="1474" cy="-59" rx="3.6" ry="3.6"/>
</g>
<!-- 1335&#45;&gt;1330 -->
<g id="edge33" class="edge"><title>1335&#45;&gt;1330</title>
<path fill="none" stroke="red" d="M1477.98,-59C1484.75,-59 1501.76,-59 1516,-59 1516,-59 1516,-59 1652,-59 1661.34,-59 1671.88,-59 1679.94,-59"/>
<polygon fill="red" stroke="red" points="1680.02,-62.5001 1690.02,-59 1680.02,-55.5001 1680.02,-62.5001"/>
<text text-anchor="middle" x="1584" y="-62.8" font-family="Times,serif" font-size="14.00">1375 4.7k</text>
</g>
<!-- 1341 -->
<g id="node30" class="node"><title>1341</title>
<ellipse fill="black" stroke="black" cx="1362" cy="-59" rx="3.6" ry="3.6"/>
</g>
<!-- 1341&#45;&gt;1335 -->
<g id="edge35" class="edge"><title>1341&#45;&gt;1335</title>
<path fill="none" stroke="black" d="M1365.54,-58.066C1371.91,-55.7833 1389.09,-49.9648 1404,-48 1416.34,-46.3737 1419.66,-46.3737 1432,-48 1441.9,-49.3047 1452.8,-52.3089 1460.87,-54.8485"/>
<polygon fill="black" stroke="black" points="1459.86,-58.2009 1470.46,-58.066 1462.09,-51.5649 1459.86,-58.2009"/>
<text text-anchor="middle" x="1418" y="-51.8" font-family="Times,serif" font-size="14.00">1382</text>
</g>
<!-- 1341&#45;&gt;1335 -->
<g id="edge37" class="edge"><title>1341&#45;&gt;1335</title>
<path fill="none" stroke="black" stroke-dasharray="1,5" d="M1365.58,-59.3403C1372.04,-60.1719 1389.43,-62.2908 1404,-63 1416.43,-63.6049 1419.57,-63.6049 1432,-63 1441.56,-62.5346 1452.34,-61.4621 1460.44,-60.5447"/>
<polygon fill="black" stroke="black" points="1460.91,-64.0137 1470.42,-59.3403 1460.07,-57.0641 1460.91,-64.0137"/>
<text text-anchor="middle" x="1418" y="-66.8" font-family="Times,serif" font-size="14.00">1383</text>
</g>
<!-- 1359 -->
<g id="node33" class="node"><title>1359</title>
<ellipse fill="black" stroke="black" cx="968" cy="-59" rx="3.6" ry="3.6"/>
</g>
<!-- 1359&#45;&gt;1341 -->
<g id="edge39" class="edge"><title>1359&#45;&gt;1341</title>
<path fill="none" stroke="magenta" d="M971.984,-59C978.747,-59 995.764,-59 1010,-59 1010,-59 1010,-59 1320,-59 1329.34,-59 1339.88,-59 1347.94,-59"/>
<polygon fill="magenta" stroke="magenta" points="1348.02,-62.5001 1358.02,-59 1348.02,-55.5001 1348.02,-62.5001"/>
<text text-anchor="middle" x="1165" y="-62.8" font-family="Times,serif" font-size="14.00">28120 14.8k</text>
</g>
<!-- 1362 -->
<g id="node35" class="node"><title>1362</title>
<ellipse fill="black" stroke="black" cx="856" cy="-59" rx="3.6" ry="3.6"/>
</g>
<!-- 1362&#45;&gt;1359 -->
<g id="edge41" class="edge"><title>1362&#45;&gt;1359</title>
<path fill="none" stroke="black" d="M859.543,-58.066C865.909,-55.7833 883.095,-49.9648 898,-48 910.338,-46.3737 913.662,-46.3737 926,-48 935.898,-49.3047 946.802,-52.3089 954.875,-54.8485"/>
<polygon fill="black" stroke="black" points="953.863,-58.2009 964.457,-58.066 956.091,-51.5649 953.863,-58.2009"/>
<text text-anchor="middle" x="912" y="-51.8" font-family="Times,serif" font-size="14.00">1401</text>
</g>
<!-- 1362&#45;&gt;1359 -->
<g id="edge43" class="edge"><title>1362&#45;&gt;1359</title>
<path fill="none" stroke="black" stroke-dasharray="1,5" d="M859.584,-59.3403C866.045,-60.1719 883.427,-62.2908 898,-63 910.43,-63.6049 913.57,-63.6049 926,-63 935.563,-62.5346 946.337,-61.4621 954.44,-60.5447"/>
<polygon fill="black" stroke="black" points="954.908,-64.0137 964.416,-59.3403 954.069,-57.0641 954.908,-64.0137"/>
<text text-anchor="middle" x="912" y="-66.8" font-family="Times,serif" font-size="14.00">1402</text>
</g>
<!-- 1368 -->
<g id="node38" class="node"><title>1368</title>
<ellipse fill="black" stroke="black" cx="630" cy="-59" rx="3.6" ry="3.6"/>
</g>
<!-- 1368&#45;&gt;1362 -->
<g id="edge45" class="edge"><title>1368&#45;&gt;1362</title>
<path fill="none" stroke="red" d="M633.984,-59C640.747,-59 657.764,-59 672,-59 672,-59 672,-59 814,-59 823.342,-59 833.882,-59 841.936,-59"/>
<polygon fill="red" stroke="red" points="842.016,-62.5001 852.016,-59 842.016,-55.5001 842.016,-62.5001"/>
<text text-anchor="middle" x="743" y="-62.8" font-family="Times,serif" font-size="14.00">28117 4.0k</text>
</g>
<!-- 1372 -->
<g id="node40" class="node"><title>1372</title>
<ellipse fill="black" stroke="black" cx="518" cy="-59" rx="3.6" ry="3.6"/>
</g>
<!-- 1372&#45;&gt;1368 -->
<g id="edge47" class="edge"><title>1372&#45;&gt;1368</title>
<path fill="none" stroke="black" d="M521.543,-58.066C527.909,-55.7833 545.095,-49.9648 560,-48 572.338,-46.3737 575.662,-46.3737 588,-48 597.898,-49.3047 608.802,-52.3089 616.875,-54.8485"/>
<polygon fill="black" stroke="black" points="615.863,-58.2009 626.457,-58.066 618.091,-51.5649 615.863,-58.2009"/>
<text text-anchor="middle" x="574" y="-51.8" font-family="Times,serif" font-size="14.00">1409</text>
</g>
<!-- 1372&#45;&gt;1368 -->
<g id="edge49" class="edge"><title>1372&#45;&gt;1368</title>
<path fill="none" stroke="black" stroke-dasharray="1,5" d="M521.584,-59.3403C528.045,-60.1719 545.427,-62.2908 560,-63 572.43,-63.6049 575.57,-63.6049 588,-63 597.563,-62.5346 608.337,-61.4621 616.44,-60.5447"/>
<polygon fill="black" stroke="black" points="616.908,-64.0137 626.416,-59.3403 616.069,-57.0641 616.908,-64.0137"/>
<text text-anchor="middle" x="574" y="-66.8" font-family="Times,serif" font-size="14.00">1410</text>
</g>
<!-- 1375 -->
<g id="node43" class="node"><title>1375</title>
<ellipse fill="black" stroke="black" cx="132" cy="-59" rx="3.6" ry="3.6"/>
</g>
<!-- 1375&#45;&gt;1372 -->
<g id="edge51" class="edge"><title>1375&#45;&gt;1372</title>
<path fill="none" stroke="magenta" d="M135.984,-59C142.747,-59 159.764,-59 174,-59 174,-59 174,-59 476,-59 485.342,-59 495.882,-59 503.936,-59"/>
<polygon fill="magenta" stroke="magenta" points="504.016,-62.5001 514.016,-59 504.016,-55.5001 504.016,-62.5001"/>
<text text-anchor="middle" x="325" y="-62.8" font-family="Times,serif" font-size="14.00">1414 10.7k</text>
</g>
<!-- 1378 -->
<g id="node45" class="node"><title>1378</title>
<ellipse fill="green" stroke="green" cx="20" cy="-59" rx="3.6" ry="3.6"/>
</g>
<!-- 1378&#45;&gt;1375 -->
<g id="edge53" class="edge"><title>1378&#45;&gt;1375</title>
<path fill="none" stroke="black" stroke-dasharray="1,5" d="M23.5427,-58.066C29.9093,-55.7833 47.0946,-49.9648 62,-48 74.3377,-46.3737 77.6623,-46.3737 90,-48 99.8981,-49.3047 110.802,-52.3089 118.875,-54.8485"/>
<polygon fill="black" stroke="black" points="117.863,-58.2009 128.457,-58.066 120.091,-51.5649 117.863,-58.2009"/>
<text text-anchor="middle" x="76" y="-51.8" font-family="Times,serif" font-size="14.00">1415</text>
</g>
<!-- 1378&#45;&gt;1375 -->
<g id="edge55" class="edge"><title>1378&#45;&gt;1375</title>
<path fill="none" stroke="black" stroke-dasharray="1,5" d="M23.5839,-59.3403C30.0445,-60.1719 47.4275,-62.2908 62,-63 74.4297,-63.6049 77.5703,-63.6049 90,-63 99.5632,-62.5346 110.337,-61.4621 118.44,-60.5447"/>
<polygon fill="black" stroke="black" points="118.908,-64.0137 128.416,-59.3403 118.069,-57.0641 118.908,-64.0137"/>
<text text-anchor="middle" x="76" y="-66.8" font-family="Times,serif" font-size="14.00">1416</text>
</g>
</g>
</g>
</svg>
