<?xml version="1.0" encoding="UTF-8" standalone="no"?>
<!DOCTYPE svg PUBLIC "-//W3C//DTD SVG 1.1//EN"
 "http://www.w3.org/Graphics/SVG/1.1/DTD/svg11.dtd">
<!-- Generated by graphviz version 2.34.0 (20130907.0228)
 -->
<!-- Title: G Pages: 1 -->
<svg width="514pt" height="38pt"
 viewBox="7.20 0.00 507.20 37.91" xmlns="http://www.w3.org/2000/svg" xmlns:xlink="http://www.w3.org/1999/xlink">
<g id="graph0" class="graph" transform="scale(1 1) rotate(0) translate(11.2 33.91)">
<title>G</title>
<polygon fill="white" stroke="white" points="-4,4 -4,-33.91 496,-33.91 496,4 -4,4"/>
<!-- 1 -->
<g id="node1" class="node"><title>1</title>
<ellipse fill="black" stroke="black" cx="4" cy="-6.95499" rx="3.6" ry="3.6"/>
</g>
<!-- 2 -->
<g id="node2" class="node"><title>2</title>
<ellipse fill="black" stroke="black" cx="48" cy="-6.95499" rx="3.6" ry="3.6"/>
</g>
<!-- 1&#45;&gt;2 -->
<g id="edge1" class="edge"><title>1&#45;&gt;2</title>
<path fill="none" stroke="black" d="M7.75574,-6.95499C13.0345,-6.95499 24.874,-6.95499 34.1767,-6.95499"/>
<polygon fill="black" stroke="black" points="34.1791,-10.4551 44.179,-6.95499 34.179,-3.45509 34.1791,-10.4551"/>
</g>
<!-- 3 -->
<g id="node3" class="node"><title>3</title>
<ellipse fill="black" stroke="black" cx="92" cy="-6.95499" rx="3.6" ry="3.6"/>
</g>
<!-- 2&#45;&gt;3 -->
<g id="edge2" class="edge"><title>2&#45;&gt;3</title>
<path fill="none" stroke="black" d="M50.8047,-4.00187C55.7162,-0.393376 69.6301,0.643024 79.7128,-0.892671"/>
<polygon fill="black" stroke="black" points="78.6556,-4.22939 89.2488,-4.04152 80.8506,2.4176 78.6556,-4.22939"/>
</g>
<!-- 2&#45;&gt;3 -->
<g id="edge3" class="edge"><title>2&#45;&gt;3</title>
<path fill="none" stroke="black" d="M50.8047,-9.90812C55.7162,-13.5166 69.6301,-14.553 79.7128,-13.0173"/>
<polygon fill="black" stroke="black" points="80.8506,-16.3276 89.2488,-9.86847 78.6556,-9.6806 80.8506,-16.3276"/>
</g>
<!-- 4 -->
<g id="node4" class="node"><title>4</title>
<ellipse fill="black" stroke="black" cx="136" cy="-6.95499" rx="3.6" ry="3.6"/>
</g>
<!-- 3&#45;&gt;4 -->
<g id="edge4" class="edge"><title>3&#45;&gt;4</title>
<path fill="none" stroke="black" d="M95.7557,-6.95499C101.034,-6.95499 112.874,-6.95499 122.177,-6.95499"/>
<polygon fill="black" stroke="black" points="122.179,-10.4551 132.179,-6.95499 122.179,-3.45509 122.179,-10.4551"/>
</g>
<!-- 5 -->
<g id="node5" class="node"><title>5</title>
<ellipse fill="black" stroke="black" cx="180" cy="-6.95499" rx="3.6" ry="3.6"/>
</g>
<!-- 4&#45;&gt;5 -->
<g id="edge5" class="edge"><title>4&#45;&gt;5</title>
<path fill="none" stroke="black" d="M138.805,-4.00187C143.716,-0.393376 157.63,0.643024 167.713,-0.892671"/>
<polygon fill="black" stroke="black" points="166.656,-4.22939 177.249,-4.04152 168.851,2.4176 166.656,-4.22939"/>
</g>
<!-- 4&#45;&gt;5 -->
<g id="edge6" class="edge"><title>4&#45;&gt;5</title>
<path fill="none" stroke="black" d="M138.805,-9.90812C143.716,-13.5166 157.63,-14.553 167.713,-13.0173"/>
<polygon fill="black" stroke="black" points="168.851,-16.3276 177.249,-9.86847 166.656,-9.6806 168.851,-16.3276"/>
</g>
<!-- 6 -->
<g id="node6" class="node"><title>6</title>
<ellipse fill="black" stroke="black" cx="224" cy="-6.95499" rx="3.6" ry="3.6"/>
</g>
<!-- 5&#45;&gt;6 -->
<g id="edge7" class="edge"><title>5&#45;&gt;6</title>
<path fill="none" stroke="black" d="M183.756,-6.95499C189.034,-6.95499 200.874,-6.95499 210.177,-6.95499"/>
<polygon fill="black" stroke="black" points="210.179,-10.4551 220.179,-6.95499 210.179,-3.45509 210.179,-10.4551"/>
</g>
<!-- x -->
<g id="node7" class="node"><title>x</title>
<ellipse fill="black" stroke="black" cx="268" cy="-22.955" rx="3.6" ry="3.6"/>
</g>
<!-- 6&#45;&gt;x -->
<g id="edge8" class="edge"><title>6&#45;&gt;x</title>
<path fill="none" stroke="black" d="M227.756,-8.0048C233.153,-10.0609 245.409,-14.73 254.8,-18.3073"/>
<polygon fill="black" stroke="black" points="253.588,-21.591 264.179,-21.8803 256.08,-15.0496 253.588,-21.591"/>
</g>
<!-- 7 -->
<g id="node9" class="node"><title>7</title>
<ellipse fill="black" stroke="black" cx="356" cy="-6.95499" rx="3.6" ry="3.6"/>
</g>
<!-- 6&#45;&gt;7 -->
<g id="edge12" class="edge"><title>6&#45;&gt;7</title>
<path fill="none" stroke="black" d="M227.715,-6.95499C242.387,-6.95499 312.612,-6.95499 342.011,-6.95499"/>
<polygon fill="black" stroke="black" points="342.3,-10.4551 352.3,-6.95499 342.3,-3.45509 342.3,-10.4551"/>
</g>
<!-- y -->
<g id="node8" class="node"><title>y</title>
<ellipse fill="black" stroke="black" cx="312" cy="-22.955" rx="3.6" ry="3.6"/>
</g>
<!-- x&#45;&gt;y -->
<g id="edge9" class="edge"><title>x&#45;&gt;y</title>
<path fill="none" stroke="black" d="M270.805,-20.0019C275.716,-16.3934 289.63,-15.357 299.713,-16.8927"/>
<polygon fill="black" stroke="black" points="298.656,-20.2294 309.249,-20.0415 300.851,-13.5824 298.656,-20.2294"/>
</g>
<!-- x&#45;&gt;y -->
<g id="edge10" class="edge"><title>x&#45;&gt;y</title>
<path fill="none" stroke="black" d="M270.805,-25.9081C275.716,-29.5166 289.63,-30.553 299.713,-29.0173"/>
<polygon fill="black" stroke="black" points="300.851,-32.3276 309.249,-25.8685 298.656,-25.6806 300.851,-32.3276"/>
</g>
<!-- y&#45;&gt;7 -->
<g id="edge11" class="edge"><title>y&#45;&gt;7</title>
<path fill="none" stroke="black" d="M315.756,-21.9052C321.153,-19.8491 333.409,-15.18 342.8,-11.6027"/>
<polygon fill="black" stroke="black" points="344.08,-14.8604 352.179,-8.02964 341.588,-8.31895 344.08,-14.8604"/>
</g>
<!-- 8 -->
<g id="node10" class="node"><title>8</title>
<ellipse fill="black" stroke="black" cx="400" cy="-6.95499" rx="3.6" ry="3.6"/>
</g>
<!-- 7&#45;&gt;8 -->
<g id="edge13" class="edge"><title>7&#45;&gt;8</title>
<path fill="none" stroke="black" d="M359.756,-6.95499C365.034,-6.95499 376.874,-6.95499 386.177,-6.95499"/>
<polygon fill="black" stroke="black" points="386.179,-10.4551 396.179,-6.95499 386.179,-3.45509 386.179,-10.4551"/>
</g>
<!-- 9 -->
<g id="node11" class="node"><title>9</title>
<ellipse fill="black" stroke="black" cx="444" cy="-6.95499" rx="3.6" ry="3.6"/>
</g>
<!-- 8&#45;&gt;9 -->
<g id="edge14" class="edge"><title>8&#45;&gt;9</title>
<path fill="none" stroke="black" d="M402.805,-4.00187C407.716,-0.393376 421.63,0.643024 431.713,-0.892671"/>
<polygon fill="black" stroke="black" points="430.656,-4.22939 441.249,-4.04152 432.851,2.4176 430.656,-4.22939"/>
</g>
<!-- 8&#45;&gt;9 -->
<g id="edge15" class="edge"><title>8&#45;&gt;9</title>
<path fill="none" stroke="black" d="M402.805,-9.90812C407.716,-13.5166 421.63,-14.553 431.713,-13.0173"/>
<polygon fill="black" stroke="black" points="432.851,-16.3276 441.249,-9.86847 430.656,-9.6806 432.851,-16.3276"/>
</g>
<!-- 10 -->
<g id="node12" class="node"><title>10</title>
<ellipse fill="black" stroke="black" cx="488" cy="-6.95499" rx="3.6" ry="3.6"/>
</g>
<!-- 9&#45;&gt;10 -->
<g id="edge16" class="edge"><title>9&#45;&gt;10</title>
<path fill="none" stroke="black" d="M447.756,-6.95499C453.034,-6.95499 464.874,-6.95499 474.177,-6.95499"/>
<polygon fill="black" stroke="black" points="474.179,-10.4551 484.179,-6.95499 474.179,-3.45509 474.179,-10.4551"/>
</g>
</g>
</svg>
